<svg xmlns="http://www.w3.org/2000/svg" viewBox="0 0 194.59 343.28"><defs><style>.cls-1{fill:#fff;}.cls-2{fill:#e6007e;}</style></defs><title>logo 1 dark</title><g id="Layer_1" data-name="Layer 1"><path class="cls-1" d="M39,120.72c3.62,4.25,10.76,4.78,16-1.74,5.6-6.92,22.31-15.56,41.58-16.39s29.9-10.43,34.49-18.07c4.84-8,7.34-36.4-13.88-45.95-.54-.24-.6-.13-.17.27,8.06,7.55,21.24,39.47-2.78,51.94-22,11.4-26.15-8.47-37.24-6.41-.57.11-.6.45-.09.74a10.29,10.29,0,0,1,3,2.49c.36.47.09.9-.5,1-5.52.53-20.85,5.07-29.69,18-.33.48-.21.59.26.25,5.81-4.31,20.19-13.25,32.32-12.72a3.32,3.32,0,0,1,1.83.81,52,52,0,0,0,4.14,3.58c.47.35.4.64-.18.72-6,.77-23,4.65-31.95,11.89-9.19,7.42-8.7,10.15-15.63,5.47a2.35,2.35,0,0,0-1.87-.23c-5.13,1.66-17,2.47-15.79-10.83.05-.59.35-.63.73-.19a2.38,2.38,0,0,0,2.83.89,2.41,2.41,0,0,0,.9-3.84c-.36-.46-.36-.92.22-1,3.48-.77,2.28,4.76,5.35,6.49.51.29.69,0,.47-.54-1.54-3.8,1.14-10.63-7.68-10.14-.59,0-.89-.36-.57-.86,1.56-2.47,4.44-3,7.34-3.37.58-.09.85-.59.48-1a4.35,4.35,0,0,0-1.37-1.15c-.52-.26-.75-.76-.32-1.15,1.38-1.23,3.63-1.63,5.06-1.81.58-.08.6-.29.1-.59-1.15-.69-2.72-2.14-.9-4.33,2.53-3,20.69-20.06,29-23.81a2.27,2.27,0,0,0,1.18-1.44,18.12,18.12,0,0,1,5.77-9.68c5.87-5.2,21.08-2.13,27.63-11.52a.79.79,0,0,0-.42-1.24,9.78,9.78,0,0,1-4-3c-.36-.46-.13-.74.45-.65A5.43,5.43,0,0,0,98,31.27c.54-.23.47-.84,0-1.18-1.85-1.33-4-3.53-1.63-6.91,2.58-3.63.5-7.81-2.87-10-.49-.31-.45-.55.14-.51,6.2.44,15.5,6.87,18.3,17.84.14.56.4.58.53,0,2-8.79-4.28-30.57-40.42-27.92-.58,0-.64.32-.14.61,16.62,9.85,8.68,17.9,17.19,26.9a.63.63,0,0,1-.26,1.11c-7,2.73-14.17,10.22-21,12.39a3.41,3.41,0,0,0-1.59,1.18c-1.73,2.66-5.14,7.48-6.06,10.82a3.47,3.47,0,0,1-1.07,1.66C52.23,62.43,38.21,74.9,29.76,86.05a3.51,3.51,0,0,1-1.68,1c-3.77,1.09-10.26,7.78-9,15.16a5.11,5.11,0,0,1-.17,2c-1.63,5.45,1.38,19.32,18.45,15.87A1.91,1.91,0,0,1,39,120.72Z" transform="translate(-5.81 -2.38)"/><path class="cls-1" d="M94.09,155.11c-9.66,3.38-28.63,5.16-40.2,12.53-.49.31-.55.24-.14-.17,17.49-17.47,60.81-36.9,76.73-57.22.36-.47.49-.4.28.15-3.4,9.08-10,18.54-13.59,22.84-.38.45-.3.54.17.19,11-8.27,51.45-54.56,14.77-91.63-.41-.42-.49-.35-.18.14,8.18,12.78,18.4,36.29-5,64.9C103.1,136,1.14,160.56,6,239.93c0,.59.17.6.29,0C21.06,172,78,174.32,94.41,155.55,94.79,155.11,94.64,154.91,94.09,155.11Z" transform="translate(-5.81 -2.38)"/><path class="cls-1" d="M165.25,58.89a38.69,38.69,0,0,1-4.59-7.13c-.27-.52-.1-.66.39-.33,11.67,7.88,25.44,2.82,29.5-3,.34-.48.75-.47.91.09,1.68,5.8-2.85,12-4.65,14.13-.38.45-.28.58.24.31,20.95-11.19,14-30.5,1.13-34.24-.56-.17-.69.08-.38.57,2.63,4.12,4.9,16.85-8.09,21.25-16.91,5.74-29-17.3-44.28-15.94-.58,0-.57.13,0,.21,9.06,1.39,18.57,20,29.57,24.43C165.54,59.51,165.64,59.33,165.25,58.89Z" transform="translate(-5.81 -2.38)"/><path class="cls-1" d="M95,215.66c.72-16.26-18.43-14.83,20.55-49.5,45-40.08,48.26-87.32,36.37-106.32-.31-.5-.48-.42-.36.15,4.46,22.07,5.1,61.38-42.53,95.21-48.79,34.65-32.73,52-28,87.48" transform="translate(-5.81 -2.38)"/><path class="cls-1" d="M164.57,69.74c-.49-.32-.6-.19-.29.31,7,10.93,1.4,39.21-9.91,59.35-13.76,24.49,4.42,38.13,11.86,38.13,9.28,0,14.38-3.09,15.28-15.92,0-.58-.26-.71-.69-.32-5.85,5.32-12.25,2.73-15.75-1.67-8.79-11,4.25-29.06,4.86-40.32,0-.59.14-.6.35,0,2.91,7.59,15.24,13.83,24.21,6.43.45-.37.33-.65-.26-.62-10.13.45-18.82-7.13-18.24-19.84C176.55,83.12,171,74,164.57,69.74Z" transform="translate(-5.81 -2.38)"/><path class="cls-1" d="M140.47,154.42c-5.71,9.73-24.9,26-33.25,30.94a.22.22,0,0,0,.18.4c7.63-2.58,22.42-9.63,27.74-11.94.94-.4,2.14-.57,2.29.38.91,5.59,12.59,8.11,20.83,6.22.67-.16.83-.4.19-.67-8.6-3.6-18.24-12.78-17.46-25.18C141,154,140.77,153.91,140.47,154.42Z" transform="translate(-5.81 -2.38)"/><path class="cls-1" d="M122.31,103.66c-5.93,3.38-15.61,6.57-23.61,5.86a1,1,0,0,0-1.07.94c-.07,2.48-.56,8.7-3.48,12.55-.36.46-.25.62.28.38,8.28-3.72,24.53-14,28.25-19.35C123,103.56,122.82,103.37,122.31,103.66Z" transform="translate(-5.81 -2.38)"/><path class="cls-1" d="M70,56.36a3.69,3.69,0,0,0,2.18,1.54,2.87,2.87,0,0,1,1.68.86c5.66,7.25,10-1.06,14-3.24.52-.28.59-.67.09-1-6.5-3.93-13.43-1.75-17.66.44A.91.91,0,0,0,70,56.36Z" transform="translate(-5.81 -2.38)"/><path class="cls-1" d="M47.73,80.35c8.82,1.62,12.83-8.44,18-11.61.5-.31.48-.65-.1-.7a8.18,8.18,0,0,0-3.45.59c-.54.21-.75,0-.41-.46a9.57,9.57,0,0,1,3.33-2.89c.51-.28.47-.56-.11-.55-7.63.13-11.25,13.44-17.22,15.2C47.17,80.09,47.15,80.24,47.73,80.35Z" transform="translate(-5.81 -2.38)"/><path class="cls-2" d="M97.19,310.18a2.38,2.38,0,0,0-.48-1.52c-1.51-2.8-3.08-5.57-4.51-8.41a54.61,54.61,0,0,1-4.55-12.65,33.87,33.87,0,0,1-.43-13.71A23.58,23.58,0,0,1,93,262.25,41,41,0,0,1,97.52,258a118,118,0,0,1,15.53-10.47,7.6,7.6,0,0,1,3.66-1.34,6.92,6.92,0,0,1,4.11.9,43.18,43.18,0,0,1,3.8,2.6c1.62,1.3,3.12,2.75,4.68,4.13.4.36.81.7,1.28,1.11a35.46,35.46,0,0,0,4.19-3.27c1.3-1,2.56-2.07,3.83-3.11l4-3.28c3.72,1.32,6.5,3.27,13.42,9.4.63.11,1-.37,1.4-.69,2.86-2.22,5.7-4.47,8.54-6.7.61-.48,1.21-.95,1.83-1.41a1,1,0,0,1,1.22,0c5.64,4.68,10.38,10.07,13.3,16.89a33.25,33.25,0,0,1,2.07,19,50.3,50.3,0,0,1-6.56,17.09A90.85,90.85,0,0,1,165.48,315a143.16,143.16,0,0,1-18.89,16.85,5.67,5.67,0,0,0-2,1.75,9.29,9.29,0,0,0,.55.78c.83,1,.84,1-.1,1.76-2.36,2-4.74,3.91-7.11,5.86-1.36,1.12-2.71,2.24-4.07,3.34a1.28,1.28,0,0,1-1.52.14,34.65,34.65,0,0,1-6-4c-3.33-2.68-6.58-5.46-9.87-8.2-.5-.42-1-.88-1.51-1.26a1.12,1.12,0,0,0-1.25-.06c-1.13.67-2.25,1.37-3.36,2.06l-10.12,6.36c-.66-.62-1.32-1.18-1.9-1.81a234.07,234.07,0,0,1-21-25.31,96,96,0,0,1-8.07-13.56,44.46,44.46,0,0,1-4-12.14c-.12-.76-.22-1.52-.28-2.28a57.55,57.55,0,0,1,.34-10.5,17.26,17.26,0,0,1,3-7.91,31.37,31.37,0,0,1,10.13-9.72c.75-.45,1.55-.82,2.27-1.33a3.87,3.87,0,0,0,1.72-4.27c-.57-2.79-1.08-5.6-1.44-8.43a24.1,24.1,0,0,1,.3-9.15,20.89,20.89,0,0,1,2.47-5.71,68.79,68.79,0,0,1,7.53-10A14.29,14.29,0,0,1,97,214.48a38.9,38.9,0,0,1,11.16-2.58c3.93-.27,7.87-.57,11.82-.51a.87.87,0,0,0,1-1c-.15-1.63-.27-3.27-.5-4.9s.28-3.51-.71-5.11c-1.72-.47-3.48-.13-5.22-.21s-3.73-.12-5.59-.18a.68.68,0,0,1-.45-1q1.53-2.53,3.07-5.07c1.65-2.71,3.32-5.42,5-8.13a1.66,1.66,0,0,1,1.34-.8c1.3-.17,2.59-.42,3.7-.6.3-.28.55-.4.6-.57a6.59,6.59,0,0,1,3.09-3.69,88.05,88.05,0,0,1,10.67-5.81,1.66,1.66,0,0,1,.55-.05,1.48,1.48,0,0,1,0,1.28,46.69,46.69,0,0,0-1.12,7.8,2.66,2.66,0,0,0,.11,1c.05.18.25.45.41.46a13.53,13.53,0,0,0,2.62.08,96.89,96.89,0,0,0,14.26-2.28,1.73,1.73,0,0,1,1.64.12c-.4.75-.8,1.53-1.23,2.28-1.79,3.14-3.65,6.25-5.36,9.44a4.63,4.63,0,0,1-3,2.29l-7.25,2.14a3.09,3.09,0,0,0-.93.31,1.44,1.44,0,0,0-.54.77,15.87,15.87,0,0,0-.2,2c-.12,1.86-.25,3.71-.34,5.57a3.61,3.61,0,0,1-1.46,2.82c-.33.26-.67.51-1,.76.1.13.14.25.2.26,1.73.24,3.46.54,5.2.69,4.92.43,9.83.9,14.75,1.14a64.05,64.05,0,0,0,11.83-.2,36.64,36.64,0,0,0,5.52-.86,2.8,2.8,0,0,1,.95.06,1.56,1.56,0,0,1-.48,1.22c-2.5,3-5,6.1-7.5,9.17a5.11,5.11,0,0,1-2.42,1.57,54.94,54.94,0,0,1-11.46,2.86,57.58,57.58,0,0,1-8.21.28,56.11,56.11,0,0,1-7.54-.54c-2.06-.3-4.16-.23-6.24-.42a143.18,143.18,0,0,0-18.41-.3c-2.51.09-5,.37-7.53.65a15.18,15.18,0,0,0-2.87.69,4.74,4.74,0,0,0-1.41.81,2.09,2.09,0,0,0-.86,1.7,9.65,9.65,0,0,0,.05,1.32c.6,3.45.7,7,1.47,10.41a9,9,0,0,1,0,4.23,5.41,5.41,0,0,1-2.34,3.44c-1.83,1.2-3.62,2.46-5.43,3.71a28.86,28.86,0,0,0-4.51,3.82,22.24,22.24,0,0,0-6,12.2c-.74,4.57,0,8.94,1.24,13.3a63,63,0,0,0,6.65,15A102.22,102.22,0,0,0,96,309.14c.33.42.61.92,1.23,1,0,.46.14.78.71.61a1.62,1.62,0,0,0,.56,1.39l.11.11-.16-.07c-.12-.48-.11-1-.58-1.35C97.78,310.47,97.67,310.12,97.19,310.18Zm64-48.16-.25-.07.31,0a3.52,3.52,0,0,0,.21,2.24,19.53,19.53,0,0,1,.78,8.45,31.42,31.42,0,0,1-2.85,9.38,51.24,51.24,0,0,1-4.61,7.56,75.66,75.66,0,0,1-8.27,9.34,104.68,104.68,0,0,1-14.45,11.88,2.4,2.4,0,0,1-.84.5,1.09,1.09,0,0,1-.84-.32,5.29,5.29,0,0,1-.55-1.15,8.45,8.45,0,0,1,2.17-2.5,73.84,73.84,0,0,0,6.19-6.8,44.49,44.49,0,0,0,6.68-11.26c2.51-6.43,2.64-12.83-.33-19.13a30.89,30.89,0,0,0-2.87-4.78,33,33,0,0,0-8-7.75c-.23-.16-.61-.1-.92-.15,0-.34,0-.73-.42-.27-.08.1.23.31.49.21-.22,1,.54,1.62.81,2.43a11.17,11.17,0,0,1,0,7.73,4.41,4.41,0,0,1-1.52,2.09c-3.89,2.85-7.77,5.73-11.65,8.59-.26.19-.59.44-.89.2a1.11,1.11,0,0,1-.38-.8,20,20,0,0,0-.17-4.58c-.88-6.64-4.29-11.37-10.66-13.77a18.14,18.14,0,0,0-2.53-.68,1.17,1.17,0,0,0-1.31.73,25.71,25.71,0,0,0-2.57,8.79,36.33,36.33,0,0,0,1,13.36,62.23,62.23,0,0,0,7.56,16.71,120.07,120.07,0,0,0,17.51,21.29,170.38,170.38,0,0,0,13,11.63,1.52,1.52,0,0,0,1.35.51c2.32-2.23,4.71-4.62,7-7.14a99.88,99.88,0,0,0,12.24-16.26,53,53,0,0,0,7.15-18.62,34,34,0,0,0-1.23-16.57A32,32,0,0,0,161.18,262Z" transform="translate(-5.81 -2.38)"/></g></svg>