<svg id="Layer_1" data-name="Layer 1" xmlns="http://www.w3.org/2000/svg" xmlns:xlink="http://www.w3.org/1999/xlink" viewBox="0 0 909.83 346.53"><defs><style>.cls-1{fill:none;}.cls-2{fill:#8012f8;}.cls-3{fill:#ec008c;}.cls-4{fill:#004fff;}.cls-5,.cls-7{fill:#e31e27;}.cls-5{stroke:#e31e27;stroke-miterlimit:10;stroke-width:2px;}.cls-6{clip-path:url(#clip-path);}</style><clipPath id="clip-path" transform="translate(-5.86 0)"><rect class="cls-1" width="208.15" height="346.54"/></clipPath></defs><title>logo 2 v2</title><path class="cls-2" d="M231.13,197.52a37.64,37.64,0,0,1-25.81-9.66c-9.5-8.75-9.5-17.89-9.5-37.61s0-28.85,9.5-37.6A37.64,37.64,0,0,1,231.13,103c18.15,0,31.62,10.19,35,27.69H255.09c-2.69-11.36-11.34-18.81-24-18.81a25.41,25.41,0,0,0-17.44,6.53c-6.38,6-7.09,12.41-7.09,31.86s.71,25.86,7.09,31.87a25.41,25.41,0,0,0,17.44,6.53c12.62,0,21.55-7.45,24.25-18.81h10.77C262.89,187.34,249.14,197.52,231.13,197.52Z" transform="translate(-5.86 0)"/><path d="M279.9,160.42c0,11.62,5.48,18.29,15.59,18.29,6.14,0,9.69-1.83,13.88-6l5.27,4.63c-5.38,5.38-10.33,8.17-19.36,8.17-14,0-23.13-8.39-23.13-27.1,0-17.11,8.28-27.11,21.73-27.11,13.66,0,21.73,9.9,21.73,25.6v3.55Zm26.35-14.63a13.59,13.59,0,0,0-24.74,0c-1.18,2.91-1.4,4.52-1.61,8.82h28C307.65,150.31,307.43,148.7,306.25,145.79Z" transform="translate(-5.86 0)"/><path d="M366,184.84V152.25c0-9.36-5.05-14.1-13-14.1s-13.12,4.84-13.12,14.1v32.59h-7.75V131.91h7.75v5.81a19.06,19.06,0,0,1,14.84-6.45c5.7,0,10.33,1.72,13.55,4.95,3.77,3.65,5.49,8.6,5.49,14.73v33.89Z" transform="translate(-5.86 0)"/><path d="M407.37,184.84c-9,0-13.55-6.35-13.55-14.2V138.15h-6.67v-5.91h6.67V115.67h7.74v16.57h11.3v5.91h-11.3v32.27c0,4.84,2.26,7.75,7.21,7.75h4.09v6.67Z" transform="translate(-5.86 0)"/><path d="M457.82,142c-2.9-2.91-5.05-3.88-9.14-3.88-7.75,0-12.7,6.13-12.7,14.2v32.49h-7.74V131.91H436v6.46c2.91-4.41,8.72-7.1,14.85-7.1,5.06,0,8.93,1.18,12.69,4.95Z" transform="translate(-5.86 0)"/><path d="M474.71,160.42c0,11.62,5.49,18.29,15.6,18.29,6.13,0,9.68-1.83,13.88-6l5.27,4.63c-5.38,5.38-10.33,8.17-19.37,8.17-14,0-23.12-8.39-23.12-27.1,0-17.11,8.28-27.11,21.73-27.11,13.66,0,21.72,9.9,21.72,25.6v3.55Zm26.36-14.63a13.59,13.59,0,0,0-24.74,0c-1.19,2.91-1.4,4.52-1.62,8.82h28C502.46,150.31,502.25,148.7,501.07,145.79Z" transform="translate(-5.86 0)"/><path class="cls-3" d="M544,192.55V106.72H597.3v8.2H553.18v30.26h37.61v8.19H553.18v31H597.3v8.19ZM571.38,98.4h-8L574,80H584.4Z" transform="translate(-5.86 0)"/><path d="M635.71,209.83V183.22c-3.83,4.88-8.13,6.13-13.3,6.13-4.79,0-9-1.63-11.49-4.12-4.78-4.78-5.74-12.63-5.74-20s1-15.21,5.74-20c2.49-2.48,6.7-4.11,11.49-4.11,5.17,0,9.57,1.15,13.39,6.12v-5.55h6.8v68.14Zm-11.77-62.59c-10.24,0-11.87,8.81-11.87,18s1.63,18,11.87,18,11.77-8.8,11.77-18S634.18,147.24,623.94,147.24Z" transform="translate(-5.86 0)"/><path d="M689.58,188.77v-5.26a17.25,17.25,0,0,1-13.3,5.84c-5.07,0-9.28-1.53-12.15-4.4-3.35-3.26-4.79-7.76-4.79-13.21V141.69h6.89v29c0,8.32,4.4,12.53,11.48,12.53s11.77-4.3,11.77-12.53v-29h6.9v47.08Z" transform="translate(-5.86 0)"/><path d="M717.9,167.05c0,10.34,4.88,16.27,13.88,16.27,5.45,0,8.61-1.63,12.34-5.36l4.69,4.12c-4.78,4.78-9.19,7.27-17.23,7.27-12.44,0-20.57-7.47-20.57-24.12,0-15.21,7.37-24.11,19.33-24.11,12.15,0,19.33,8.8,19.33,22.77v3.16Zm23.44-13a12.09,12.09,0,0,0-22,0c-1.06,2.58-1.25,4-1.44,7.84h24.88C742.59,158.06,742.4,156.62,741.34,154Z" transform="translate(-5.86 0)"/><path class="cls-4" d="M779.14,189.35c-7.94,0-14.16-1.82-19.33-6.8L764.4,178c3.74,3.92,8.81,5.45,14.65,5.45,7.75,0,12.53-2.77,12.53-8.32,0-4.11-2.39-6.41-7.84-6.89l-7.76-.67c-9.18-.77-14.06-4.88-14.06-12.63,0-8.61,7.27-13.78,17.32-13.78,6.69,0,12.72,1.63,16.93,5.07l-4.49,4.5C788.33,148.1,784,147,779.14,147c-6.89,0-10.53,3-10.53,7.75,0,4,2.3,6.41,8.24,6.89l7.55.67c8.23.76,13.88,3.92,13.88,12.72C798.28,184.09,790.53,189.35,779.14,189.35Z" transform="translate(-5.86 0)"/><path d="M824,188.77c-8,0-12.06-5.64-12.06-12.63v-28.9H806V142H812V127.24h6.89V142h10v5.26h-10V176c0,4.31,2,6.89,6.41,6.89h3.64v5.93Z" transform="translate(-5.86 0)"/><path d="M868.9,150.69c-2.59-2.59-4.5-3.45-8.14-3.45-6.89,0-11.29,5.46-11.29,12.63v28.9h-6.89V141.69h6.89v5.74c2.58-3.92,7.75-6.31,13.21-6.31,4.49,0,7.94,1,11.29,4.4Z" transform="translate(-5.86 0)"/><path d="M883.92,167.05c0,10.34,4.88,16.27,13.87,16.27,5.46,0,8.61-1.63,12.35-5.36l4.69,4.12c-4.79,4.78-9.19,7.27-17.23,7.27-12.44,0-20.57-7.47-20.57-24.12,0-15.21,7.37-24.11,19.33-24.11,12.15,0,19.33,8.8,19.33,22.77v3.16Zm23.44-13a12.09,12.09,0,0,0-22,0c-1.05,2.58-1.24,4-1.43,7.84H908.8C908.6,158.06,908.41,156.62,907.36,154Z" transform="translate(-5.86 0)"/><path d="M350.07,266.05V263.8a6.08,6.08,0,0,1-5.34,2.48,6.57,6.57,0,0,1-4.59-1.64c-1.91-1.91-2.29-5.05-2.29-8s.38-6.07,2.29-8a6.53,6.53,0,0,1,4.59-1.65,6,6,0,0,1,5.31,2.41V238.85h2.75v27.2Zm-4.73-16.58c-4.09,0-4.74,3.51-4.74,7.18s.65,7.19,4.74,7.19,4.7-3.52,4.7-7.19S349.43,249.47,345.34,249.47Z" transform="translate(-5.86 0)"/><path d="M361.38,257.38c0,4.13,1.95,6.49,5.54,6.49a6.19,6.19,0,0,0,4.93-2.14l1.87,1.65a8.61,8.61,0,0,1-6.88,2.9c-5,0-8.21-3-8.21-9.63,0-6.07,2.94-9.63,7.71-9.63s7.72,3.52,7.72,9.1v1.26Zm9.36-5.2a4.83,4.83,0,0,0-8.79,0,7.83,7.83,0,0,0-.57,3.14h9.93A7.83,7.83,0,0,0,370.74,252.18Z" transform="translate(-5.86 0)"/><path class="cls-3" d="M412.1,266.28c-8.19,0-13.29-2.24-18.32-7.27l2.94-2.93c4.95,4.94,9,6.49,15.61,6.49,8.66,0,14.15-4.17,14.15-11.36,0-3.25-1-6-3-7.73s-3.48-2.24-8-2.94l-6.41-1a19.09,19.09,0,0,1-9.82-4c-2.94-2.48-4.33-5.88-4.33-10.13,0-9.2,6.57-15.08,17.09-15.08a21.72,21.72,0,0,1,15.84,6l-2.7,2.7c-3.4-3-6.81-5.1-13.38-5.1-8,0-12.75,4.41-12.75,11.36,0,3.17.93,5.57,2.86,7.19a17.42,17.42,0,0,0,8.19,3.4l6,.93c5.18.78,7.5,1.7,9.82,3.64a13.5,13.5,0,0,1,4.8,10.66C430.66,260.33,423.54,266.28,412.1,266.28Z" transform="translate(-5.86 0)"/><path class="cls-2" d="M480,265.82v-3.71c-3.16,3.17-6.1,4.17-11.36,4.17-5.49,0-8.58-.93-11-3.4a10.66,10.66,0,0,1-2.7-7.27c0-6.8,4.87-10.74,13-10.74H480v-4.18c0-5.95-2.93-9.12-10.51-9.12-5.26,0-8,1.32-10.28,4.72l-2.86-2.48c3.17-4.4,7.11-5.72,13.14-5.72,9.82,0,14.46,4.41,14.46,12.22v25.51ZM480,248H468.45c-6.42,0-9.51,2.55-9.51,7.5s3,7.26,9.74,7.26c3.4,0,6.65-.31,9.28-2.86,1.39-1.31,2.08-3.63,2.08-7.11Z" transform="translate(-5.86 0)"/><path class="cls-2" d="M538.4,265.82v-4.41a13.8,13.8,0,0,1-11,4.87c-4.18,0-7.5-1.24-9.9-3.55s-3.86-6-3.86-10.36V228.56h3.94v23.11c0,7.19,3.63,11.13,10.28,11.13s10.51-4.09,10.51-11.13V228.56h4v37.26Z" transform="translate(-5.86 0)"/><path class="cls-2" d="M583.85,265.82H580l-13.61-37.26h4.33l11.21,32.62,11.21-32.62h4.33Z" transform="translate(-5.86 0)"/><path class="cls-2" d="M622.5,248c0,9.43,4.25,14.69,12.14,14.69,4.4,0,7.11-1.32,10.28-4.49l2.94,2.32c-3.79,3.79-7.27,5.72-13.45,5.72-10.29,0-15.85-6.65-15.85-19.09,0-12,5.56-19.1,14.92-19.1s14.92,6.81,14.92,18.17V248Zm20.64-10.21a10.59,10.59,0,0,0-19.33,0,17.51,17.51,0,0,0-1.31,7h22C644.3,241.31,644.07,240.15,643.14,237.83Z" transform="translate(-5.86 0)"/><path class="cls-2" d="M686.5,265.82c-5.87,0-9-4.1-9-9.74V231.5h-5.1v-2.94h5.1V216.65h4v11.91h8.42v2.94h-8.42v24.65c0,3.87,1.78,6.19,5.72,6.19h2.7v3.48Z" transform="translate(-5.86 0)"/><path class="cls-2" d="M718.19,248c0,9.43,4.25,14.69,12.14,14.69,4.4,0,7.11-1.32,10.28-4.49l2.94,2.32c-3.79,3.79-7.27,5.72-13.45,5.72-10.29,0-15.85-6.65-15.85-19.09,0-12,5.56-19.1,14.92-19.1s14.92,6.81,14.92,18.17V248Zm20.64-10.21a10.59,10.59,0,0,0-19.33,0,17.51,17.51,0,0,0-1.31,7h21.95C740,241.31,739.76,240.15,738.83,237.83Z" transform="translate(-5.86 0)"/><path class="cls-2" d="M793.25,234.51a8.54,8.54,0,0,0-7-2.94c-6.41,0-10,5.26-10,11.29v23H772.3V228.56h3.94v4.95c2.16-3.48,6.49-5.42,10.9-5.42a11.66,11.66,0,0,1,9,3.56Z" transform="translate(-5.86 0)"/><path class="cls-2" d="M840.32,234.51a8.53,8.53,0,0,0-7-2.94c-6.42,0-10,5.26-10,11.29v23h-3.94V228.56h3.94v4.95c2.17-3.48,6.5-5.42,10.9-5.42a11.66,11.66,0,0,1,9,3.56Z" transform="translate(-5.86 0)"/><path class="cls-2" d="M865.52,248c0,9.43,4.25,14.69,12.14,14.69,4.4,0,7.11-1.32,10.28-4.49l2.93,2.32c-3.78,3.79-7.26,5.72-13.45,5.72-10.28,0-15.84-6.65-15.84-19.09,0-12,5.56-19.1,14.92-19.1s14.92,6.81,14.92,18.17V248Zm20.64-10.21a10.59,10.59,0,0,0-19.33,0,17.34,17.34,0,0,0-1.31,7h22C887.32,241.31,887.09,240.15,886.16,237.83Z" transform="translate(-5.86 0)"/><line class="cls-5" x1="266.29" y1="283.73" x2="909.83" y2="283.73"/><g class="cls-6"><g class="cls-6"><path d="M39.4,119.47c3.66,4.29,10.86,4.82,16.18-1.76,5.65-7,22.53-15.71,42-16.54s30.18-10.54,34.81-18.25c4.89-8.13,7.41-36.74-14-46.38-.54-.25-.6-.14-.17.27,8.14,7.62,21.45,39.84-2.81,52.43C93.22,100.75,89,80.69,77.79,82.77c-.58.11-.6.46-.09.75a10.47,10.47,0,0,1,3,2.51c.36.47.09.91-.5,1-5.58.54-21,5.12-30,18.18-.33.49-.21.6.26.25C56.37,101.07,70.89,92,83.13,92.58A3.36,3.36,0,0,1,85,93.4,54.9,54.9,0,0,0,89.15,97c.48.35.41.64-.18.72-6,.78-23.21,4.69-32.25,12-9.28,7.5-8.78,10.25-15.78,5.53a2.42,2.42,0,0,0-1.88-.24c-5.18,1.68-17.13,2.5-15.94-10.93.05-.59.35-.64.74-.19a2.41,2.41,0,0,0,2.85.9,2.44,2.44,0,0,0,.91-3.88c-.37-.47-.36-.93.22-1.06,3.52-.78,2.31,4.81,5.4,6.55.52.29.7,0,.48-.55-1.56-3.82,1.14-10.72-7.76-10.23-.59,0-.89-.36-.58-.86,1.58-2.5,4.49-3,7.41-3.41.59-.09.86-.6.49-1.06a4.27,4.27,0,0,0-1.38-1.15c-.53-.27-.76-.77-.32-1.17,1.39-1.24,3.66-1.65,5.1-1.83.59-.08.61-.29.1-.6-1.16-.69-2.74-2.15-.91-4.36,2.57-3.08,20.9-20.26,29.3-24a2.26,2.26,0,0,0,1.18-1.45,18.3,18.3,0,0,1,5.83-9.78c5.92-5.25,21.28-2.15,27.89-11.63a.8.8,0,0,0-.43-1.25,9.89,9.89,0,0,1-4-3c-.36-.47-.13-.75.45-.66a5.43,5.43,0,0,0,2.85-.21c.55-.23.48-.85,0-1.2-1.86-1.34-4.07-3.56-1.65-7,2.6-3.66.51-7.88-2.9-10.09-.49-.32-.44-.56.15-.52,6.26.45,15.65,6.94,18.47,18,.15.57.4.59.53,0,2-8.88-4.31-30.86-40.8-28.19-.59.05-.65.32-.14.63C89.38,10.78,81.37,18.91,90,28a.63.63,0,0,1-.25,1.12c-7.08,2.76-14.31,10.32-21.22,12.51a3.32,3.32,0,0,0-1.6,1.19c-1.75,2.68-5.19,7.55-6.12,10.91a3.63,3.63,0,0,1-1.07,1.69c-7,5.2-21.12,17.79-29.64,29a3.57,3.57,0,0,1-1.7,1c-3.81,1.09-10.36,7.85-9.1,15.3a5.19,5.19,0,0,1-.17,2c-1.64,5.5,1.39,19.51,18.63,16a2,2,0,0,1,1.69.63" transform="translate(-5.86 0)"/><path d="M95,154.18c-9.75,3.41-28.9,5.21-40.58,12.65-.5.32-.56.24-.14-.18,17.65-17.63,61.39-37.24,77.46-57.76.36-.46.49-.4.28.16-3.43,9.17-10.09,18.71-13.72,23-.38.46-.3.55.17.2,11.09-8.35,51.94-55.08,14.91-92.5-.41-.42-.49-.36-.18.14,8.26,12.9,18.58,36.63-5,65.52C104.07,134.9,1.15,159.69,6,239.81c0,.59.17.6.29,0,14.94-68.58,72.38-66.25,89-85.2.39-.44.24-.65-.32-.45" transform="translate(-5.86 0)"/><path d="M166.82,57.05a39,39,0,0,1-4.64-7.2c-.27-.52-.09-.67.4-.33,11.77,7.95,25.68,2.85,29.78-3,.34-.49.75-.48.92.09,1.69,5.86-2.88,12.09-4.7,14.26-.38.46-.28.59.24.31C210,49.9,203,30.4,190,26.63c-.56-.16-.69.08-.38.58,2.65,4.16,4.95,17-8.16,21.45-17.08,5.79-29.26-17.46-44.7-16.09-.59,0-.59.13,0,.22,9.14,1.4,18.74,20.15,29.84,24.66.55.22.66,0,.26-.4" transform="translate(-5.86 0)"/><path d="M95.92,215.3c.72-16.41-18.62-15,20.73-50C162.13,124.88,165.37,77.19,153.37,58c-.31-.51-.48-.43-.37.15,4.51,22.28,5.15,62-42.93,96.12-49.24,35-33,52.52-28.3,88.31" transform="translate(-5.86 0)"/><path d="M166.13,68c-.49-.32-.61-.19-.29.31,7.06,11,1.41,39.59-10,59.91-13.89,24.73,4.46,38.5,12,38.5,9.37,0,14.51-3.12,15.42-16.07.05-.59-.26-.72-.7-.32-5.9,5.37-12.36,2.76-15.9-1.69-8.87-11.14,4.3-29.34,4.91-40.7,0-.59.14-.61.35,0,2.94,7.66,15.38,14,24.45,6.49.45-.38.32-.66-.27-.63-10.22.46-19-7.2-18.41-20,.56-12.21-5.09-21.44-11.53-25.72" transform="translate(-5.86 0)"/><path d="M141.8,153.48c-5.76,9.83-25.13,26.25-33.56,31.24a.22.22,0,0,0,.18.4c7.7-2.6,22.64-9.72,28-12.05,1-.41,2.16-.58,2.32.39.91,5.63,12.7,8.18,21,6.27.68-.16.84-.4.19-.67-8.68-3.64-18.41-12.9-17.63-25.42,0-.59-.22-.67-.52-.16" transform="translate(-5.86 0)"/><path d="M123.47,102.25c-6,3.41-15.76,6.62-23.84,5.91a1,1,0,0,0-1.07,1c-.08,2.5-.57,8.78-3.52,12.67-.36.47-.25.63.29.39,8.36-3.76,24.76-14.19,28.52-19.55.34-.48.13-.66-.38-.37" transform="translate(-5.86 0)"/><path d="M70.66,54.5a3.75,3.75,0,0,0,2.2,1.55,3,3,0,0,1,1.7.86c5.71,7.33,10.07-1.07,14.17-3.27.53-.27.6-.67.1-1-6.56-4-13.56-1.77-17.83.44a.94.94,0,0,0-.34,1.4" transform="translate(-5.86 0)"/><path d="M48.18,78.71c8.91,1.64,13-8.51,18.14-11.72.51-.31.49-.66-.1-.7a8.15,8.15,0,0,0-3.48.59c-.55.22-.75,0-.42-.47a9.67,9.67,0,0,1,3.37-2.91c.52-.29.48-.56-.12-.56-7.69.13-11.35,13.57-17.38,15.34-.57.17-.59.32,0,.43" transform="translate(-5.86 0)"/><path class="cls-7" d="M98.11,310.73a2.4,2.4,0,0,0-.48-1.55c-1.53-2.82-3.11-5.61-4.55-8.48a54.27,54.27,0,0,1-4.59-12.77,34,34,0,0,1-.44-13.84,23.79,23.79,0,0,1,5.79-11.76,43.61,43.61,0,0,1,4.6-4.31,119.23,119.23,0,0,1,15.68-10.57,7.8,7.8,0,0,1,3.7-1.35,7,7,0,0,1,4.15.9c1.3.85,2.63,1.66,3.83,2.62,1.63,1.32,3.16,2.78,4.73,4.18.4.36.82.71,1.29,1.11a35,35,0,0,0,4.23-3.29c1.32-1,2.58-2.09,3.87-3.15l4-3.3c3.76,1.33,6.56,3.3,13.55,9.48.63.11,1-.37,1.41-.69,2.89-2.24,5.75-4.51,8.63-6.77l1.84-1.42a1,1,0,0,1,1.23,0c5.7,4.72,10.48,10.17,13.43,17.06A33.57,33.57,0,0,1,186.14,282a50.69,50.69,0,0,1-6.63,17.26,91.57,91.57,0,0,1-12.46,16.34,145.25,145.25,0,0,1-19.07,17,5.76,5.76,0,0,0-2,1.76c.18.26.35.54.56.79.83,1,.85,1-.1,1.78q-3.58,3-7.19,5.92l-4.1,3.37a1.31,1.31,0,0,1-1.54.14,34.88,34.88,0,0,1-6.09-4c-3.36-2.71-6.65-5.51-10-8.28-.51-.42-1-.88-1.53-1.27a1.13,1.13,0,0,0-1.26-.06c-1.14.68-2.27,1.38-3.4,2.08l-10.21,6.41c-.66-.62-1.33-1.18-1.92-1.81a235.24,235.24,0,0,1-21.18-25.56,95.41,95.41,0,0,1-8.15-13.69,44.48,44.48,0,0,1-4-12.25c-.12-.77-.22-1.54-.28-2.31A56.93,56.93,0,0,1,66,275,17.55,17.55,0,0,1,69,267a31.75,31.75,0,0,1,10.23-9.81c.76-.45,1.57-.83,2.29-1.34a3.91,3.91,0,0,0,1.74-4.31c-.58-2.82-1.09-5.66-1.45-8.51a24.17,24.17,0,0,1,.3-9.24,20.86,20.86,0,0,1,2.5-5.77A68.7,68.7,0,0,1,92.22,218a14.57,14.57,0,0,1,5.72-3.87,39.26,39.26,0,0,1,11.26-2.6c4-.27,8-.58,11.94-.51a.88.88,0,0,0,1-1c-.15-1.65-.27-3.31-.5-5s.27-3.54-.72-5.16c-1.74-.47-3.52-.13-5.27-.22s-3.76-.11-5.64-.17a.69.69,0,0,1-.46-1l3.09-5.12,5-8.21a1.72,1.72,0,0,1,1.35-.81c1.31-.16,2.61-.41,3.73-.6.31-.28.56-.4.61-.58a6.66,6.66,0,0,1,3.12-3.72,89.75,89.75,0,0,1,10.77-5.87,2.05,2.05,0,0,1,.56-.05,1.52,1.52,0,0,1,0,1.3,46.36,46.36,0,0,0-1.13,7.87,3,3,0,0,0,.1,1c.06.19.26.45.42.46a14.61,14.61,0,0,0,2.64.09,98.6,98.6,0,0,0,14.4-2.31,1.74,1.74,0,0,1,1.66.13c-.41.75-.81,1.53-1.24,2.3-1.81,3.17-3.69,6.3-5.42,9.52a4.69,4.69,0,0,1-3,2.32c-2.44.73-4.88,1.44-7.32,2.15a3.52,3.52,0,0,0-.93.32,1.43,1.43,0,0,0-.55.78,16,16,0,0,0-.2,2c-.12,1.88-.26,3.75-.35,5.63a3.66,3.66,0,0,1-1.46,2.85l-1,.76c.1.14.14.25.19.26,1.75.25,3.5.55,5.26.71,5,.43,9.92.9,14.89,1.15a65.26,65.26,0,0,0,11.94-.21,36.25,36.25,0,0,0,5.57-.87,2.81,2.81,0,0,1,1,.07,1.54,1.54,0,0,1-.48,1.22c-2.52,3.09-5.07,6.16-7.57,9.26a5.08,5.08,0,0,1-2.44,1.59,55.82,55.82,0,0,1-11.57,2.88,57.25,57.25,0,0,1-8.29.28,55.52,55.52,0,0,1-7.61-.54c-2.08-.3-4.2-.23-6.3-.42a144,144,0,0,0-18.58-.31c-2.54.09-5.07.38-7.6.66a15.32,15.32,0,0,0-2.9.7,4.82,4.82,0,0,0-1.42.82,2.08,2.08,0,0,0-.87,1.71,9.74,9.74,0,0,0,0,1.33c.6,3.49.71,7.05,1.48,10.51a9.06,9.06,0,0,1,0,4.27,5.44,5.44,0,0,1-2.36,3.47c-1.85,1.22-3.66,2.49-5.48,3.75a29.42,29.42,0,0,0-4.56,3.85,22.45,22.45,0,0,0-6,12.32c-.75,4.61,0,9,1.25,13.43a64.19,64.19,0,0,0,6.71,15.13,101.89,101.89,0,0,0,8.27,12c.32.42.61.93,1.23,1,0,.47.15.79.72.62a1.69,1.69,0,0,0,.56,1.41l.12.11-.17-.08c-.12-.48-.11-1-.58-1.36-.1-.35-.21-.71-.7-.64m64.6-48.62-.25-.08.3,0a3.67,3.67,0,0,0,.22,2.26,19.7,19.7,0,0,1,.79,8.52,31.28,31.28,0,0,1-2.88,9.47,51.81,51.81,0,0,1-4.66,7.64,76.22,76.22,0,0,1-8.34,9.43,105.35,105.35,0,0,1-14.59,12,2.35,2.35,0,0,1-.85.5,1,1,0,0,1-.84-.32,4.57,4.57,0,0,1-.55-1.16,8.3,8.3,0,0,1,2.18-2.52A76.92,76.92,0,0,0,139.5,301a44.83,44.83,0,0,0,6.73-11.37c2.54-6.48,2.67-12.94-.33-19.31a32.81,32.81,0,0,0-2.89-4.83,33.82,33.82,0,0,0-8.06-7.82c-.23-.16-.62-.1-.93-.14,0-.35,0-.74-.42-.28-.09.1.23.32.49.22-.23,1,.55,1.63.82,2.45a11.31,11.31,0,0,1,0,7.8,4.49,4.49,0,0,1-1.54,2.11q-5.9,4.32-11.76,8.67c-.26.19-.6.44-.89.2a1.09,1.09,0,0,1-.39-.81,20.37,20.37,0,0,0-.17-4.62c-.89-6.71-4.34-11.48-10.76-13.9a18.41,18.41,0,0,0-2.55-.68,1.17,1.17,0,0,0-1.33.73,26,26,0,0,0-2.59,8.88,36.54,36.54,0,0,0,1,13.48,63,63,0,0,0,7.64,16.87,122.3,122.3,0,0,0,17.67,21.5,171.67,171.67,0,0,0,13.11,11.73,1.51,1.51,0,0,0,1.36.52c2.34-2.25,4.75-4.67,7.06-7.21a99.78,99.78,0,0,0,12.35-16.42A53.29,53.29,0,0,0,170.36,290a34.29,34.29,0,0,0-1.24-16.73,32.35,32.35,0,0,0-6.41-11.14" transform="translate(-5.86 0)"/></g></g></svg>