<svg id="Layer_1" data-name="Layer 1" xmlns="http://www.w3.org/2000/svg" viewBox="0 0 194.59 343.28"><defs><style>.cls-1{fill:#e31e27;}</style></defs><title>logo 1</title><path d="M39,118.34c3.62,4.26,10.76,4.78,16-1.73,5.6-6.92,22.31-15.56,41.58-16.39s29.9-10.44,34.49-18.08c4.84-8,7.34-36.39-13.88-45.95-.54-.24-.6-.13-.17.27,8.06,7.55,21.24,39.47-2.78,51.94-22,11.4-26.15-8.47-37.24-6.4-.57.1-.6.44-.09.74a10.24,10.24,0,0,1,3,2.48c.36.47.09.9-.5,1-5.52.53-20.85,5.06-29.69,18-.33.49-.21.6.26.25,5.81-4.31,20.19-13.25,32.32-12.72a3.39,3.39,0,0,1,1.83.81,52,52,0,0,0,4.14,3.58c.47.35.4.64-.18.72-6,.77-23,4.65-31.95,11.89-9.19,7.43-8.7,10.15-15.63,5.47a2.43,2.43,0,0,0-1.87-.23c-5.13,1.66-17,2.48-15.79-10.83.05-.58.35-.63.73-.19a2.38,2.38,0,0,0,2.83.89,2.41,2.41,0,0,0,.9-3.84c-.36-.46-.36-.92.22-1,3.48-.77,2.28,4.77,5.35,6.49.51.29.69,0,.47-.54-1.54-3.79,1.14-10.63-7.68-10.14-.59,0-.89-.36-.57-.85,1.56-2.48,4.44-3,7.34-3.38.58-.08.85-.59.48-1.05a4.2,4.2,0,0,0-1.37-1.14c-.52-.27-.75-.76-.32-1.15,1.38-1.24,3.63-1.64,5.06-1.82.58-.08.6-.29.1-.59-1.15-.69-2.72-2.14-.9-4.32,2.53-3,20.69-20.07,29-23.81a2.32,2.32,0,0,0,1.18-1.44A18.15,18.15,0,0,1,71.5,45.5C77.37,40.3,92.58,43.37,99.13,34a.8.8,0,0,0-.42-1.24,9.69,9.69,0,0,1-4-3c-.36-.46-.13-.74.45-.65A5.31,5.31,0,0,0,98,28.9c.54-.23.47-.85,0-1.19-1.85-1.33-4-3.53-1.63-6.91,2.58-3.62.5-7.81-2.87-10-.49-.32-.45-.56.14-.52,6.2.44,15.5,6.87,18.3,17.84.14.57.4.58.53,0,2-8.79-4.28-30.57-40.42-27.92-.58,0-.64.32-.14.62,16.62,9.84,8.68,17.9,17.19,26.9a.63.63,0,0,1-.26,1.11c-7,2.73-14.17,10.22-21,12.38a3.41,3.41,0,0,0-1.59,1.18c-1.73,2.66-5.14,7.49-6.06,10.82a3.5,3.5,0,0,1-1.07,1.67c-6.89,5.15-20.91,17.62-29.36,28.77a3.43,3.43,0,0,1-1.68,1c-3.77,1.09-10.26,7.78-9,15.17a5.13,5.13,0,0,1-.17,2c-1.63,5.44,1.38,19.32,18.45,15.87A1.9,1.9,0,0,1,39,118.34Z" transform="translate(-5.81)"/><path d="M94.09,152.73c-9.66,3.38-28.63,5.16-40.2,12.53-.49.31-.55.24-.14-.17,17.49-17.47,60.81-36.9,76.73-57.22.36-.46.49-.4.28.15-3.4,9.09-10,18.54-13.59,22.84-.38.45-.3.55.17.19,11-8.27,51.45-54.56,14.77-91.63-.41-.41-.49-.35-.18.14,8.18,12.78,18.4,36.29-5,64.91C103.1,133.63,1.14,158.19,6,237.56c0,.58.17.59.29,0,14.8-67.94,71.7-65.64,88.15-84.4C94.79,152.74,94.64,152.53,94.09,152.73Z" transform="translate(-5.81)"/><path d="M165.25,56.51a38.69,38.69,0,0,1-4.59-7.13c-.27-.52-.1-.66.39-.33,11.67,7.88,25.44,2.82,29.5-3,.34-.48.75-.47.91.09,1.68,5.8-2.85,12-4.65,14.13-.38.45-.28.59.24.31,20.95-11.19,14-30.5,1.13-34.24-.56-.16-.69.08-.38.57,2.63,4.12,4.9,16.85-8.09,21.26-16.91,5.73-29-17.31-44.28-16-.58.06-.57.13,0,.22,9.06,1.38,18.57,20,29.57,24.43C165.54,57.13,165.64,57,165.25,56.51Z" transform="translate(-5.81)"/><path d="M95,213.28c.72-16.26-18.43-14.82,20.55-49.5,45-40.07,48.26-87.32,36.37-106.32-.31-.5-.48-.42-.36.15C156,79.68,156.67,119,109,152.83c-48.79,34.65-32.73,52-28,87.48" transform="translate(-5.81)"/><path d="M164.57,67.36c-.49-.32-.6-.18-.29.31,7,10.94,1.4,39.21-9.91,59.35-13.76,24.49,4.42,38.13,11.86,38.13,9.28,0,14.38-3.09,15.28-15.92,0-.58-.26-.71-.69-.32-5.85,5.32-12.25,2.74-15.75-1.66-8.79-11,4.25-29.07,4.86-40.33,0-.58.14-.6.35,0,2.91,7.59,15.24,13.84,24.21,6.44.45-.38.33-.65-.26-.63-10.13.45-18.82-7.13-18.24-19.84C176.55,80.74,171,71.61,164.57,67.36Z" transform="translate(-5.81)"/><path d="M140.47,152c-5.71,9.73-24.9,26-33.25,31a.22.22,0,0,0,.18.39c7.63-2.58,22.42-9.63,27.74-11.93.94-.41,2.14-.58,2.29.38.91,5.58,12.59,8.1,20.83,6.21.67-.15.83-.4.19-.66-8.6-3.61-18.24-12.78-17.46-25.18C141,151.61,140.77,151.53,140.47,152Z" transform="translate(-5.81)"/><path d="M122.31,101.29c-5.93,3.38-15.61,6.56-23.61,5.85a1,1,0,0,0-1.07,1c-.07,2.47-.56,8.7-3.48,12.54-.36.47-.25.63.28.39,8.28-3.73,24.53-14.06,28.25-19.36C123,101.18,122.82,101,122.31,101.29Z" transform="translate(-5.81)"/><path d="M70,54a3.68,3.68,0,0,0,2.18,1.53,3,3,0,0,1,1.68.86c5.66,7.25,10-1.06,14-3.24.52-.28.59-.67.09-1-6.5-3.94-13.43-1.76-17.66.43A.92.92,0,0,0,70,54Z" transform="translate(-5.81)"/><path d="M47.73,78c8.82,1.62,12.83-8.43,18-11.61.5-.31.48-.65-.1-.69a8,8,0,0,0-3.45.58c-.54.22-.75,0-.41-.46a9.57,9.57,0,0,1,3.33-2.89c.51-.28.47-.56-.11-.55-7.63.13-11.25,13.44-17.22,15.2C47.17,77.71,47.15,77.86,47.73,78Z" transform="translate(-5.81)"/><path class="cls-1" d="M97.19,307.81a2.4,2.4,0,0,0-.48-1.53c-1.51-2.8-3.08-5.57-4.51-8.4a54.69,54.69,0,0,1-4.55-12.66,33.81,33.81,0,0,1-.43-13.7A23.57,23.57,0,0,1,93,259.87a41.89,41.89,0,0,1,4.56-4.27,117,117,0,0,1,15.53-10.48,7.59,7.59,0,0,1,3.66-1.33,6.92,6.92,0,0,1,4.11.89,45.47,45.47,0,0,1,3.8,2.6c1.62,1.31,3.12,2.75,4.68,4.13.4.36.81.71,1.28,1.11a33.48,33.48,0,0,0,4.19-3.27c1.3-1,2.56-2.07,3.83-3.11l4-3.28c3.72,1.32,6.5,3.27,13.42,9.4.63.11,1-.37,1.4-.69q4.29-3.33,8.54-6.7c.61-.47,1.21-1,1.83-1.41a1,1,0,0,1,1.22,0c5.64,4.68,10.38,10.07,13.3,16.9a33.22,33.22,0,0,1,2.07,19,50.43,50.43,0,0,1-6.56,17.1,91.14,91.14,0,0,1-12.35,16.18,143.16,143.16,0,0,1-18.89,16.85,5.67,5.67,0,0,0-2,1.75,9.29,9.29,0,0,0,.55.78c.83,1,.84,1-.1,1.77-2.36,2-4.74,3.9-7.11,5.85L133.89,343a1.29,1.29,0,0,1-1.52.13,34.59,34.59,0,0,1-6-4c-3.33-2.69-6.58-5.47-9.87-8.2-.5-.43-1-.88-1.51-1.27a1.12,1.12,0,0,0-1.25,0c-1.13.67-2.25,1.36-3.36,2.06-3.35,2.09-6.69,4.19-10.12,6.35-.66-.62-1.32-1.18-1.9-1.8a234.18,234.18,0,0,1-21-25.32,96,96,0,0,1-8.07-13.56,44.35,44.35,0,0,1-4-12.14c-.12-.76-.22-1.52-.28-2.28a57.57,57.57,0,0,1,.34-10.5,17.3,17.3,0,0,1,3-7.91,31.37,31.37,0,0,1,10.13-9.72c.75-.45,1.55-.82,2.27-1.32a3.89,3.89,0,0,0,1.72-4.28c-.57-2.79-1.08-5.6-1.44-8.42a24.16,24.16,0,0,1,.3-9.16,21,21,0,0,1,2.47-5.71,68.16,68.16,0,0,1,7.53-10A14.31,14.31,0,0,1,97,212.1a38.9,38.9,0,0,1,11.16-2.58c3.93-.27,7.87-.57,11.82-.5a.87.87,0,0,0,1-1c-.15-1.64-.27-3.28-.5-4.9s.28-3.52-.71-5.11c-1.72-.48-3.48-.13-5.22-.22s-3.73-.11-5.59-.17a.69.69,0,0,1-.45-1q1.53-2.53,3.07-5.06c1.65-2.72,3.32-5.43,5-8.14a1.69,1.69,0,0,1,1.34-.8c1.3-.17,2.59-.41,3.7-.59.3-.29.55-.4.6-.58a6.65,6.65,0,0,1,3.09-3.69,89.45,89.45,0,0,1,10.67-5.81,2,2,0,0,1,.55,0,1.48,1.48,0,0,1,0,1.28,46.69,46.69,0,0,0-1.12,7.8,2.66,2.66,0,0,0,.11,1c.05.19.25.45.41.46a14.39,14.39,0,0,0,2.62.09,98.26,98.26,0,0,0,14.26-2.29,1.7,1.7,0,0,1,1.64.13c-.4.75-.8,1.52-1.23,2.27-1.79,3.15-3.65,6.25-5.36,9.44a4.68,4.68,0,0,1-3,2.3l-7.25,2.13a2.85,2.85,0,0,0-.93.32,1.42,1.42,0,0,0-.54.76,16.07,16.07,0,0,0-.2,2c-.12,1.86-.25,3.71-.34,5.57a3.65,3.65,0,0,1-1.46,2.83c-.33.26-.67.5-1,.75.1.14.14.25.2.26,1.73.24,3.46.55,5.2.7,4.92.42,9.83.89,14.75,1.14a64.94,64.94,0,0,0,11.83-.21,36.64,36.64,0,0,0,5.52-.86,2.81,2.81,0,0,1,.95.07,1.55,1.55,0,0,1-.48,1.21c-2.5,3.06-5,6.1-7.5,9.17a5,5,0,0,1-2.42,1.57,54.32,54.32,0,0,1-11.46,2.86,57.58,57.58,0,0,1-8.21.28,56.1,56.1,0,0,1-7.54-.53c-2.06-.3-4.16-.23-6.24-.43a143.18,143.18,0,0,0-18.41-.3c-2.51.09-5,.38-7.53.65a15.21,15.21,0,0,0-2.87.7,4.74,4.74,0,0,0-1.41.81,2.06,2.06,0,0,0-.86,1.7,9.51,9.51,0,0,0,.05,1.31c.6,3.46.7,7,1.47,10.41a9,9,0,0,1,0,4.23,5.38,5.38,0,0,1-2.34,3.44c-1.83,1.21-3.62,2.47-5.43,3.71a28.86,28.86,0,0,0-4.51,3.82,22.24,22.24,0,0,0-6,12.2c-.74,4.57,0,8.94,1.24,13.3a62.84,62.84,0,0,0,6.65,15A103.19,103.19,0,0,0,96,306.77c.33.41.61.92,1.23,1,0,.46.14.79.71.62a1.65,1.65,0,0,0,.56,1.39l.11.11-.16-.08c-.12-.48-.11-1-.58-1.35C97.78,308.09,97.67,307.74,97.19,307.81Zm64-48.16-.25-.08.31,0a3.54,3.54,0,0,0,.21,2.24,19.47,19.47,0,0,1,.78,8.44,31.25,31.25,0,0,1-2.85,9.38,50.72,50.72,0,0,1-4.61,7.56,75.76,75.76,0,0,1-8.27,9.35,105.4,105.4,0,0,1-14.45,11.88,2.52,2.52,0,0,1-.84.49,1.05,1.05,0,0,1-.84-.32,5.29,5.29,0,0,1-.55-1.15A8.29,8.29,0,0,1,132,305a76.53,76.53,0,0,0,6.19-6.8,44.54,44.54,0,0,0,6.68-11.27c2.51-6.42,2.64-12.82-.33-19.13a31.37,31.37,0,0,0-2.87-4.78,33.19,33.19,0,0,0-8-7.75c-.23-.16-.61-.1-.92-.14,0-.35,0-.74-.42-.27-.08.09.23.31.49.21-.22,1,.54,1.62.81,2.43a11.14,11.14,0,0,1,0,7.72,4.49,4.49,0,0,1-1.52,2.1q-5.83,4.27-11.65,8.58c-.26.19-.59.44-.89.2a1.11,1.11,0,0,1-.38-.8,20,20,0,0,0-.17-4.58c-.88-6.64-4.29-11.37-10.66-13.77a16.83,16.83,0,0,0-2.53-.67,1.15,1.15,0,0,0-1.31.73,25.58,25.58,0,0,0-2.57,8.79,36.34,36.34,0,0,0,1,13.36,62.31,62.31,0,0,0,7.56,16.7,120.5,120.5,0,0,0,17.51,21.3,170.25,170.25,0,0,0,13,11.62,1.52,1.52,0,0,0,1.35.52c2.32-2.23,4.71-4.63,7-7.14a100,100,0,0,0,12.24-16.27,53,53,0,0,0,7.15-18.62,34,34,0,0,0-1.23-16.57A32,32,0,0,0,161.18,259.65Z" transform="translate(-5.81)"/></svg>