<?xml version="1.0" encoding="utf-8"?>
<!-- Generator: Adobe Illustrator 22.1.0, SVG Export Plug-In . SVG Version: 6.00 Build 0)  -->
<svg version="1.1" id="Layer_1" xmlns="http://www.w3.org/2000/svg" xmlns:xlink="http://www.w3.org/1999/xlink" x="0px" y="0px"
	 viewBox="0 0 928.8 346.5" style="enable-background:new 0 0 928.8 346.5;" xml:space="preserve">
<style type="text/css">
	.st0{fill:#FFFFFF;}
	.st1{fill:none;stroke:#E6007E;stroke-width:2;stroke-miterlimit:10;}
	.st2{clip-path:url(#SVGID_2_);}
	.st3{clip-path:url(#SVGID_4_);fill:#FFFFFF;}
	.st4{clip-path:url(#SVGID_4_);fill:#C2000D;}
</style>
<g>
	<path class="st0" d="M231.1,197.5c-9.9,0-19-3.4-25.8-9.7c-9.5-8.7-9.5-17.9-9.5-37.6c0-19.7,0-28.9,9.5-37.6
		c6.8-6.3,15.9-9.7,25.8-9.7c18.1,0,31.6,10.2,35,27.7h-11.1c-2.7-11.4-11.3-18.8-24-18.8c-6.7,0-13,2.4-17.4,6.5
		c-6.4,6-7.1,12.4-7.1,31.9c0,19.5,0.7,25.9,7.1,31.9c4.4,4.2,10.8,6.5,17.4,6.5c12.6,0,21.6-7.4,24.2-18.8h10.8
		C262.9,187.3,249.1,197.5,231.1,197.5z"/>
	<path class="st0" d="M279.9,160.4c0,11.6,5.5,18.3,15.6,18.3c6.1,0,9.7-1.8,13.9-6l5.3,4.6c-5.4,5.4-10.3,8.2-19.4,8.2
		c-14,0-23.1-8.4-23.1-27.1c0-17.1,8.3-27.1,21.7-27.1c13.7,0,21.7,9.9,21.7,25.6v3.5H279.9z M306.3,145.8c-2-4.8-6.8-8-12.4-8
		s-10.3,3.1-12.4,8c-1.2,2.9-1.4,4.5-1.6,8.8h28C307.6,150.3,307.4,148.7,306.3,145.8z"/>
	<path class="st0" d="M366,184.8v-32.6c0-9.4-5.1-14.1-13-14.1c-8,0-13.1,4.8-13.1,14.1v32.6h-7.7v-52.9h7.7v5.8
		c3.8-4.3,8.9-6.5,14.8-6.5c5.7,0,10.3,1.7,13.6,4.9c3.8,3.7,5.5,8.6,5.5,14.7v33.9H366z"/>
	<path class="st0" d="M407.4,184.8c-9,0-13.6-6.3-13.6-14.2v-32.5h-6.7v-5.9h6.7v-16.6h7.7v16.6h11.3v5.9h-11.3v32.3
		c0,4.8,2.3,7.7,7.2,7.7h4.1v6.7H407.4z"/>
	<path class="st0" d="M457.8,142c-2.9-2.9-5.1-3.9-9.1-3.9c-7.7,0-12.7,6.1-12.7,14.2v32.5h-7.7v-52.9h7.7v6.5
		c2.9-4.4,8.7-7.1,14.8-7.1c5.1,0,8.9,1.2,12.7,4.9L457.8,142z"/>
	<path class="st0" d="M474.7,160.4c0,11.6,5.5,18.3,15.6,18.3c6.1,0,9.7-1.8,13.9-6l5.3,4.6c-5.4,5.4-10.3,8.2-19.4,8.2
		c-14,0-23.1-8.4-23.1-27.1c0-17.1,8.3-27.1,21.7-27.1c13.7,0,21.7,9.9,21.7,25.6v3.5H474.7z M501.1,145.8c-2-4.8-6.8-8-12.4-8
		s-10.3,3.1-12.4,8c-1.2,2.9-1.4,4.5-1.6,8.8h28C502.5,150.3,502.2,148.7,501.1,145.8z"/>
	<path class="st0" d="M544,192.6v-85.8h53.3v8.2h-44.1v30.3h37.6v8.2h-37.6v31h44.1v8.2H544z M571.4,98.4h-8L574,80h10.4L571.4,98.4
		z"/>
	<path class="st0" d="M635.7,209.8v-26.6c-3.8,4.9-8.1,6.1-13.3,6.1c-4.8,0-9-1.6-11.5-4.1c-4.8-4.8-5.7-12.6-5.7-20s1-15.2,5.7-20
		c2.5-2.5,6.7-4.1,11.5-4.1c5.2,0,9.6,1.1,13.4,6.1v-5.6h6.8v68.1H635.7z M623.9,147.2c-10.2,0-11.9,8.8-11.9,18s1.6,18,11.9,18
		c10.2,0,11.8-8.8,11.8-18S634.2,147.2,623.9,147.2z"/>
	<path class="st0" d="M689.6,188.8v-5.3c-3.4,3.8-8,5.8-13.3,5.8c-5.1,0-9.3-1.5-12.2-4.4c-3.3-3.3-4.8-7.8-4.8-13.2v-30h6.9v29
		c0,8.3,4.4,12.5,11.5,12.5c7.1,0,11.8-4.3,11.8-12.5v-29h6.9v47.1H689.6z"/>
	<path class="st0" d="M717.9,167.1c0,10.3,4.9,16.3,13.9,16.3c5.5,0,8.6-1.6,12.3-5.4l4.7,4.1c-4.8,4.8-9.2,7.3-17.2,7.3
		c-12.4,0-20.6-7.5-20.6-24.1c0-15.2,7.4-24.1,19.3-24.1c12.2,0,19.3,8.8,19.3,22.8v3.2H717.9z M741.3,154c-1.8-4.3-6-7.1-11-7.1
		c-5,0-9.2,2.8-11,7.1c-1.1,2.6-1.2,4-1.4,7.8h24.9C742.6,158.1,742.4,156.6,741.3,154z"/>
	<path class="st0" d="M779.1,189.3c-7.9,0-14.2-1.8-19.3-6.8l4.6-4.6c3.7,3.9,8.8,5.5,14.6,5.5c7.8,0,12.5-2.8,12.5-8.3
		c0-4.1-2.4-6.4-7.8-6.9l-7.8-0.7c-9.2-0.8-14.1-4.9-14.1-12.6c0-8.6,7.3-13.8,17.3-13.8c6.7,0,12.7,1.6,16.9,5.1l-4.5,4.5
		c-3.4-2.6-7.7-3.7-12.5-3.7c-6.9,0-10.5,3-10.5,7.8c0,4,2.3,6.4,8.2,6.9l7.6,0.7c8.2,0.8,13.9,3.9,13.9,12.7
		C798.3,184.1,790.5,189.3,779.1,189.3z"/>
	<path class="st0" d="M824,188.8c-8,0-12.1-5.6-12.1-12.6v-28.9H806V142h5.9v-14.7h6.9V142h10v5.3h-10V176c0,4.3,2,6.9,6.4,6.9h3.6
		v5.9H824z"/>
	<path class="st0" d="M868.9,150.7c-2.6-2.6-4.5-3.4-8.1-3.4c-6.9,0-11.3,5.5-11.3,12.6v28.9h-6.9v-47.1h6.9v5.7
		c2.6-3.9,7.8-6.3,13.2-6.3c4.5,0,7.9,1.1,11.3,4.4L868.9,150.7z"/>
	<path class="st0" d="M883.9,167.1c0,10.3,4.9,16.3,13.9,16.3c5.5,0,8.6-1.6,12.3-5.4l4.7,4.1c-4.8,4.8-9.2,7.3-17.2,7.3
		c-12.4,0-20.6-7.5-20.6-24.1c0-15.2,7.4-24.1,19.3-24.1c12.2,0,19.3,8.8,19.3,22.8v3.2H883.9z M907.4,154c-1.8-4.3-6-7.1-11-7.1
		c-5,0-9.2,2.8-11,7.1c-1.1,2.6-1.2,4-1.4,7.8h24.9C908.6,158.1,908.4,156.6,907.4,154z"/>
	<path class="st0" d="M350.1,266.1v-2.3c-1.5,2-3.3,2.5-5.3,2.5c-1.9,0-3.6-0.7-4.6-1.6c-1.9-1.9-2.3-5-2.3-8c0-2.9,0.4-6.1,2.3-8
		c1-1,2.7-1.6,4.6-1.6c2.1,0,3.8,0.5,5.3,2.4v-10.6h2.7v27.2H350.1z M345.3,249.5c-4.1,0-4.7,3.5-4.7,7.2s0.6,7.2,4.7,7.2
		c4.1,0,4.7-3.5,4.7-7.2S349.4,249.5,345.3,249.5z"/>
	<path class="st0" d="M361.4,257.4c0,4.1,1.9,6.5,5.5,6.5c2.2,0,3.4-0.6,4.9-2.1l1.9,1.6c-1.9,1.9-3.7,2.9-6.9,2.9
		c-5,0-8.2-3-8.2-9.6c0-6.1,2.9-9.6,7.7-9.6c4.9,0,7.7,3.5,7.7,9.1v1.3H361.4z M370.7,252.2c-0.7-1.7-2.4-2.8-4.4-2.8
		s-3.7,1.1-4.4,2.8c-0.4,1-0.5,1.6-0.6,3.1h9.9C371.2,253.8,371.2,253.2,370.7,252.2z"/>
	<path class="st0" d="M412.1,266.3c-8.2,0-13.3-2.2-18.3-7.3l2.9-2.9c4.9,4.9,9,6.5,15.6,6.5c8.7,0,14.1-4.2,14.1-11.4
		c0-3.2-1-6-3-7.7c-2-1.7-3.5-2.2-8-2.9l-6.4-1c-4.2-0.6-7.5-2-9.8-4c-2.9-2.5-4.3-5.9-4.3-10.1c0-9.2,6.6-15.1,17.1-15.1
		c6.8,0,11.1,1.9,15.8,6l-2.7,2.7c-3.4-3-6.8-5.1-13.4-5.1c-8,0-12.8,4.4-12.8,11.4c0,3.2,0.9,5.6,2.9,7.2c1.9,1.6,5.1,2.9,8.2,3.4
		l6,0.9c5.2,0.8,7.5,1.7,9.8,3.6c3,2.5,4.8,6.3,4.8,10.7C430.7,260.3,423.5,266.3,412.1,266.3z"/>
	<path class="st0" d="M480,265.8v-3.7c-3.2,3.2-6.1,4.2-11.4,4.2c-5.5,0-8.6-0.9-11-3.4c-1.7-1.8-2.7-4.5-2.7-7.3
		c0-6.8,4.9-10.7,13-10.7H480v-4.2c0-6-2.9-9.1-10.5-9.1c-5.3,0-8,1.3-10.3,4.7l-2.9-2.5c3.2-4.4,7.1-5.7,13.1-5.7
		c9.8,0,14.5,4.4,14.5,12.2v25.5H480z M480,248h-11.6c-6.4,0-9.5,2.6-9.5,7.5c0,4.9,3,7.3,9.7,7.3c3.4,0,6.6-0.3,9.3-2.9
		c1.4-1.3,2.1-3.6,2.1-7.1V248z"/>
	<path class="st0" d="M538.4,265.8v-4.4c-2.8,3.2-6.5,4.9-11,4.9c-4.2,0-7.5-1.2-9.9-3.6c-2.5-2.4-3.9-6-3.9-10.4v-23.8h3.9v23.1
		c0,7.2,3.6,11.1,10.3,11.1c6.6,0,10.5-4.1,10.5-11.1v-23.1h3.9v37.3H538.4z"/>
	<path class="st0" d="M583.9,265.8H580l-13.6-37.3h4.3l11.2,32.6l11.2-32.6h4.3L583.9,265.8z"/>
	<path class="st0" d="M622.5,248c0,9.4,4.3,14.7,12.1,14.7c4.4,0,7.1-1.3,10.3-4.5l2.9,2.3c-3.8,3.8-7.3,5.7-13.5,5.7
		c-10.3,0-15.8-6.6-15.8-19.1c0-12,5.6-19.1,14.9-19.1c9.3,0,14.9,6.8,14.9,18.2v1.8H622.5z M643.1,237.8c-1.6-3.9-5.4-6.3-9.7-6.3
		c-4.3,0-8,2.4-9.7,6.3c-0.9,2.3-1.2,3.5-1.3,7h22C644.3,241.3,644.1,240.2,643.1,237.8z"/>
	<path class="st0" d="M686.5,265.8c-5.9,0-9-4.1-9-9.7v-24.6h-5.1v-2.9h5.1v-11.9h3.9v11.9h8.4v2.9h-8.4v24.7c0,3.9,1.8,6.2,5.7,6.2
		h2.7v3.5H686.5z"/>
	<path class="st0" d="M718.2,248c0,9.4,4.3,14.7,12.1,14.7c4.4,0,7.1-1.3,10.3-4.5l2.9,2.3c-3.8,3.8-7.3,5.7-13.5,5.7
		c-10.3,0-15.8-6.6-15.8-19.1c0-12,5.6-19.1,14.9-19.1c9.3,0,14.9,6.8,14.9,18.2v1.8H718.2z M738.8,237.8c-1.6-3.9-5.4-6.3-9.7-6.3
		c-4.3,0-8,2.4-9.7,6.3c-0.9,2.3-1.2,3.5-1.3,7h22C740,241.3,739.8,240.2,738.8,237.8z"/>
	<path class="st0" d="M793.2,234.5c-2.2-2.2-3.9-2.9-7-2.9c-6.4,0-10,5.3-10,11.3v23h-3.9v-37.3h3.9v4.9c2.2-3.5,6.5-5.4,10.9-5.4
		c3.6,0,6.3,0.9,9,3.6L793.2,234.5z"/>
	<path class="st0" d="M840.3,234.5c-2.2-2.2-3.9-2.9-7-2.9c-6.4,0-10,5.3-10,11.3v23h-3.9v-37.3h3.9v4.9c2.2-3.5,6.5-5.4,10.9-5.4
		c3.6,0,6.3,0.9,9,3.6L840.3,234.5z"/>
	<path class="st0" d="M865.5,248c0,9.4,4.3,14.7,12.1,14.7c4.4,0,7.1-1.3,10.3-4.5l2.9,2.3c-3.8,3.8-7.3,5.7-13.5,5.7
		c-10.3,0-15.8-6.6-15.8-19.1c0-12,5.6-19.1,14.9-19.1c9.3,0,14.9,6.8,14.9,18.2v1.8H865.5z M886.2,237.8c-1.6-3.9-5.4-6.3-9.7-6.3
		c-4.3,0-8,2.4-9.7,6.3c-0.9,2.3-1.2,3.5-1.3,7h22C887.3,241.3,887.1,240.2,886.2,237.8z"/>
</g>
<line class="st1" x1="272.2" y1="283.7" x2="915.7" y2="283.7"/>
<g>
	<g>
		<defs>
			<rect id="SVGID_1_" x="0.5" y="-0.3" width="207.1" height="347.2"/>
		</defs>
		<clipPath id="SVGID_2_">
			<use xlink:href="#SVGID_1_"  style="overflow:visible;"/>
		</clipPath>
		<g class="st2">
			<defs>
				<rect id="SVGID_3_" x="0.5" y="-0.3" width="207.1" height="347.2"/>
			</defs>
			<clipPath id="SVGID_4_">
				<use xlink:href="#SVGID_3_"  style="overflow:visible;"/>
			</clipPath>
			<path class="st3" d="M39.7,120.9c3.6,4.3,10.8,4.8,16.1-1.7c5.6-7,22.4-15.6,41.8-16.5c19.4-0.8,30-10.5,34.6-18.2
				c4.9-8.1,7.4-36.6-13.9-46.2c-0.5-0.2-0.6-0.1-0.2,0.3c8.1,7.6,21.3,39.6-2.8,52.2c-22.1,11.5-26.3-8.5-37.4-6.4
				c-0.6,0.1-0.6,0.5-0.1,0.7c0.9,0.5,2.1,1.4,3,2.5c0.4,0.5,0.1,0.9-0.5,1c-5.5,0.5-20.9,5.1-29.8,18.1c-0.3,0.5-0.2,0.6,0.3,0.2
				c5.8-4.3,20.3-13.3,32.5-12.8c0.6,0,1.4,0.4,1.8,0.8c1,0.9,2.8,2.6,4.2,3.6c0.5,0.4,0.4,0.6-0.2,0.7C83,100.1,66,104,57,111.3
				c-9.2,7.5-8.7,10.2-15.7,5.5c-0.5-0.3-1.3-0.4-1.9-0.2c-5.2,1.7-17,2.5-15.9-10.9c0.1-0.6,0.3-0.6,0.7-0.2
				c0.6,0.7,1.6,1.5,2.8,0.9c1.7-0.8,1.9-2.6,0.9-3.9c-0.4-0.5-0.4-0.9,0.2-1.1c3.5-0.8,2.3,4.8,5.4,6.5c0.5,0.3,0.7,0,0.5-0.5
				c-1.6-3.8,1.1-10.7-7.7-10.2c-0.6,0-0.9-0.4-0.6-0.9c1.6-2.5,4.5-3,7.4-3.4c0.6-0.1,0.9-0.6,0.5-1.1c-0.3-0.4-0.8-0.8-1.4-1.1
				c-0.5-0.3-0.8-0.8-0.3-1.2c1.4-1.2,3.6-1.6,5.1-1.8c0.6-0.1,0.6-0.3,0.1-0.6c-1.2-0.7-2.7-2.1-0.9-4.3
				c2.5-3.1,20.8-20.2,29.1-23.9c0.5-0.2,1.1-0.9,1.2-1.4c0.7-3.4,2.6-6.9,5.8-9.7c5.9-5.2,21.2-2.1,27.8-11.6
				c0.3-0.5,0.1-1-0.4-1.2c-1-0.4-2.7-1.3-4-3c-0.4-0.5-0.1-0.7,0.4-0.7c0.8,0.1,1.9,0.2,2.8-0.2c0.5-0.2,0.5-0.8,0-1.2
				c-1.9-1.3-4-3.5-1.6-6.9c2.6-3.6,0.5-7.8-2.9-10c-0.5-0.3-0.4-0.6,0.1-0.5c6.2,0.4,15.6,6.9,18.4,17.9c0.1,0.6,0.4,0.6,0.5,0
				c2-8.8-4.3-30.7-40.6-28c-0.6,0-0.6,0.3-0.1,0.6c16.7,9.9,8.7,18,17.3,27c0.4,0.4,0.3,0.9-0.3,1.1c-7,2.7-14.2,10.3-21.1,12.4
				c-0.6,0.2-1.3,0.7-1.6,1.2c-1.7,2.7-5.2,7.5-6.1,10.9c-0.2,0.6-0.6,1.3-1.1,1.7c-6.9,5.2-21,17.7-29.5,28.9
				c-0.4,0.5-1.1,0.8-1.7,1c-3.8,1.1-10.3,7.8-9.1,15.2c0.1,0.6,0,1.5-0.2,2c-1.6,5.5,1.4,19.4,18.5,15.9
				C38.6,120.2,39.3,120.5,39.7,120.9"/>
			<path class="st3" d="M95,155.5c-9.7,3.4-28.8,5.2-40.4,12.6c-0.5,0.3-0.6,0.2-0.1-0.2c17.6-17.5,61.1-37.1,77.1-57.5
				c0.4-0.5,0.5-0.4,0.3,0.2c-3.4,9.1-10,18.6-13.7,22.9c-0.4,0.5-0.3,0.5,0.2,0.2c11-8.3,51.7-54.8,14.8-92
				c-0.4-0.4-0.5-0.4-0.2,0.1c8.2,12.8,18.5,36.4-5,65.2C104.1,136.3,1.7,161,6.5,240.7c0,0.6,0.2,0.6,0.3,0
				c14.9-68.2,72-65.9,88.5-84.8C95.7,155.5,95.6,155.3,95,155.5"/>
			<path class="st3" d="M166.5,58.8c-1.9-2.1-3.8-5.5-4.6-7.2c-0.3-0.5-0.1-0.7,0.4-0.3c11.7,7.9,25.6,2.8,29.6-3
				c0.3-0.5,0.7-0.5,0.9,0.1c1.7,5.8-2.9,12-4.7,14.2c-0.4,0.5-0.3,0.6,0.2,0.3c21-11.2,14.1-30.6,1.1-34.4
				c-0.6-0.2-0.7,0.1-0.4,0.6c2.6,4.1,4.9,16.9-8.1,21.3c-17,5.8-29.1-17.4-44.5-16c-0.6,0.1-0.6,0.1,0,0.2
				c9.1,1.4,18.6,20.1,29.7,24.5C166.8,59.4,166.9,59.3,166.5,58.8"/>
			<path class="st3" d="M96,216.3c0.7-16.3-18.5-14.9,20.6-49.7c45.2-40.2,48.5-87.7,36.5-106.8c-0.3-0.5-0.5-0.4-0.4,0.2
				c4.5,22.2,5.1,61.7-42.7,95.6c-49,34.8-32.9,52.3-28.2,87.9"/>
			<path class="st3" d="M165.8,69.7c-0.5-0.3-0.6-0.2-0.3,0.3c7,11,1.4,39.4-10,59.6c-13.8,24.6,4.4,38.3,11.9,38.3
				c9.3,0,14.4-3.1,15.3-16c0-0.6-0.3-0.7-0.7-0.3c-5.9,5.3-12.3,2.7-15.8-1.7c-8.8-11.1,4.3-29.2,4.9-40.5c0-0.6,0.1-0.6,0.3-0.1
				c2.9,7.6,15.3,13.9,24.3,6.5c0.5-0.4,0.3-0.7-0.3-0.6c-10.2,0.5-18.9-7.2-18.3-19.9C177.8,83.2,172.2,74,165.8,69.7"/>
			<path class="st3" d="M141.6,154.8c-5.7,9.8-25,26.1-33.4,31.1c-0.2,0.1-0.1,0.5,0.2,0.4c7.7-2.6,22.5-9.7,27.9-12
				c0.9-0.4,2.1-0.6,2.3,0.4c0.9,5.6,12.6,8.1,20.9,6.2c0.7-0.2,0.8-0.4,0.2-0.7c-8.6-3.6-18.3-12.8-17.5-25.3
				C142.2,154.3,141.9,154.3,141.6,154.8"/>
			<path class="st3" d="M123.4,103.8c-5.9,3.4-15.7,6.6-23.7,5.9c-0.6-0.1-1.1,0.4-1.1,0.9c-0.1,2.5-0.6,8.7-3.5,12.6
				c-0.4,0.5-0.2,0.6,0.3,0.4c8.3-3.7,24.6-14.1,28.4-19.4C124.1,103.7,123.9,103.5,123.4,103.8"/>
			<path class="st3" d="M70.8,56.3c0.5,0.7,1.2,1.4,2.2,1.5c0.6,0.1,1.3,0.4,1.7,0.9c5.7,7.3,10-1.1,14.1-3.3c0.5-0.3,0.6-0.7,0.1-1
				c-6.5-4-13.5-1.8-17.7,0.4C70.6,55.2,70.5,55.8,70.8,56.3"/>
			<path class="st3" d="M48.5,80.4c8.9,1.6,12.9-8.5,18.1-11.7c0.5-0.3,0.5-0.7-0.1-0.7c-1-0.1-2.3,0.1-3.5,0.6
				c-0.5,0.2-0.8,0-0.4-0.5c0.9-1.3,2.1-2.2,3.3-2.9c0.5-0.3,0.5-0.6-0.1-0.6C58.1,64.8,54.5,78.2,48.5,80
				C47.9,80.1,47.9,80.3,48.5,80.4"/>
			<path class="st4" d="M98.1,311.2c0.1-0.6-0.2-1-0.5-1.5c-1.5-2.8-3.1-5.6-4.5-8.4c-2-4-3.6-8.3-4.6-12.7c-1-4.6-1.3-9.1-0.4-13.8
				c0.8-4.5,2.8-8.4,5.8-11.7c1.4-1.5,3-3,4.6-4.3c4.9-4,10.2-7.3,15.6-10.5c1.1-0.7,2.3-1.3,3.7-1.3c1.5,0,2.9,0.1,4.1,0.9
				c1.3,0.8,2.6,1.6,3.8,2.6c1.6,1.3,3.1,2.8,4.7,4.2c0.4,0.4,0.8,0.7,1.3,1.1c1.6-0.9,2.8-2.2,4.2-3.3c1.3-1,2.6-2.1,3.8-3.1
				c1.4-1.1,2.7-2.2,4-3.3c3.7,1.3,6.5,3.3,13.5,9.4c0.6,0.1,1-0.4,1.4-0.7c2.9-2.2,5.7-4.5,8.6-6.7c0.6-0.5,1.2-1,1.8-1.4
				c0.4-0.3,0.9-0.3,1.2,0c5.7,4.7,10.4,10.1,13.4,17c2.6,6.2,3.2,12.5,2.1,19.1c-1,6.2-3.5,11.8-6.6,17.2
				c-3.5,5.9-7.7,11.3-12.4,16.3c-5.8,6.2-12.1,11.8-19,16.9c-0.7,0.5-1.5,0.9-2,1.8c0.2,0.3,0.3,0.5,0.6,0.8c0.8,1,0.8,1-0.1,1.8
				c-2.4,2-4.8,3.9-7.1,5.9c-1.4,1.1-2.7,2.2-4.1,3.4c-0.5,0.4-1,0.4-1.5,0.1c-2.2-1.1-4.2-2.5-6.1-4c-3.3-2.7-6.6-5.5-9.9-8.2
				c-0.5-0.4-1-0.9-1.5-1.3c-0.4-0.3-0.8-0.3-1.3-0.1c-1.1,0.7-2.3,1.4-3.4,2.1c-3.4,2.1-6.7,4.2-10.2,6.4c-0.7-0.6-1.3-1.2-1.9-1.8
				c-7.5-8.1-14.7-16.4-21.1-25.4c-3-4.3-5.8-8.8-8.1-13.6c-1.9-3.9-3.3-7.9-4-12.2c-0.1-0.8-0.2-1.5-0.3-2.3c-0.3-3.5,0-7,0.3-10.5
				c0.3-2.9,1.4-5.5,3-7.9c2.7-4,6-7.3,10.2-9.8c0.8-0.4,1.6-0.8,2.3-1.3c1.5-1,2.1-2.4,1.7-4.3c-0.6-2.8-1.1-5.6-1.4-8.5
				c-0.4-3.1-0.5-6.1,0.3-9.2c0.5-2.1,1.4-4,2.5-5.7c2.2-3.6,4.8-6.9,7.6-10c1.6-1.7,3.5-3,5.7-3.8c3.6-1.4,7.3-2.3,11.2-2.6
				c4-0.3,7.9-0.6,11.9-0.5c0.6,0,1-0.4,1-1c-0.1-1.6-0.3-3.3-0.5-4.9c-0.2-1.7,0.3-3.5-0.7-5.1c-1.7-0.5-3.5-0.1-5.2-0.2
				c-1.9-0.1-3.7-0.1-5.6-0.2c-0.4,0-0.7-0.6-0.4-1c1-1.7,2-3.4,3.1-5.1c1.7-2.7,3.3-5.4,5-8.2c0.3-0.5,0.7-0.7,1.3-0.8
				c1.3-0.2,2.6-0.4,3.7-0.6c0.3-0.3,0.6-0.4,0.6-0.6c0.5-1.7,1.7-2.8,3.1-3.7c3.4-2.2,7-4.1,10.7-5.8c0.2-0.1,0.4,0,0.6,0
				c0.3,0.4,0.1,0.9,0,1.3c-0.6,2.6-1,5.2-1.1,7.8c0,0.3,0,0.7,0.1,1c0.1,0.2,0.3,0.5,0.4,0.5c0.9,0.1,1.8,0.2,2.6,0.1
				c4.8-0.5,9.6-1.1,14.3-2.3c0.5-0.1,1.1-0.3,1.6,0.1c-0.4,0.8-0.8,1.5-1.2,2.3c-1.8,3.2-3.7,6.3-5.4,9.5c-0.7,1.3-1.7,1.9-3,2.3
				c-2.4,0.7-4.9,1.4-7.3,2.1c-0.3,0.1-0.7,0.1-0.9,0.3c-0.2,0.2-0.5,0.5-0.5,0.8c-0.1,0.6-0.2,1.3-0.2,2c-0.1,1.9-0.3,3.7-0.4,5.6
				c-0.1,1.2-0.5,2.1-1.5,2.8c-0.3,0.3-0.7,0.5-1,0.8c0.1,0.1,0.1,0.2,0.2,0.3c1.7,0.2,3.5,0.6,5.2,0.7c4.9,0.4,9.9,0.9,14.8,1.1
				c4,0.2,7.9,0.3,11.9-0.2c1.9-0.2,3.7-0.3,5.5-0.9c0.3-0.1,0.6,0,0.9,0.1c0.1,0.5-0.2,0.9-0.5,1.2c-2.5,3.1-5,6.1-7.5,9.2
				c-0.7,0.8-1.5,1.2-2.4,1.6c-3.7,1.3-7.6,2.4-11.5,2.9c-2.7,0.4-5.5,0.3-8.2,0.3c-2.5,0-5.1-0.2-7.6-0.5c-2.1-0.3-4.2-0.2-6.3-0.4
				c-6.2-0.6-12.3-0.5-18.5-0.3c-2.5,0.1-5,0.4-7.6,0.7c-1,0.1-1.9,0.4-2.9,0.7c-0.5,0.2-1,0.5-1.4,0.8c-0.5,0.4-0.9,1-0.9,1.7
				c0,0.4,0,0.9,0,1.3c0.6,3.5,0.7,7,1.5,10.5c0.3,1.4,0.4,2.8,0,4.2c-0.4,1.5-1.1,2.6-2.3,3.5c-1.8,1.2-3.6,2.5-5.5,3.7
				c-1.6,1.1-3.1,2.4-4.5,3.8c-3.3,3.4-5.2,7.5-6,12.3c-0.7,4.6,0.1,9,1.2,13.4c1.5,5.4,3.9,10.3,6.7,15.1c2.4,4.2,5.2,8.2,8.2,12
				C97.3,310.6,97.6,311.1,98.1,311.2c0.1,0.4,0.2,0.7,0.8,0.6c0,0.6,0.2,1,0.6,1.4c0,0,0.1,0.1,0.1,0.1c-0.1,0-0.1-0.1-0.2-0.1
				c-0.1-0.5-0.1-1-0.6-1.4C98.7,311.5,98.6,311.2,98.1,311.2 M162.4,262.9c-0.1,0-0.2-0.1-0.2-0.1
				C162.3,262.8,162.4,262.8,162.4,262.9c-0.2,0.7,0,1.5,0.3,2.2c0.8,2.8,1.2,5.6,0.8,8.5c-0.5,3.3-1.4,6.4-2.9,9.4
				c-1.3,2.7-2.9,5.2-4.6,7.6c-2.5,3.4-5.3,6.4-8.3,9.4c-4.5,4.4-9.3,8.4-14.5,11.9c-0.3,0.2-0.5,0.5-0.8,0.5
				c-0.3,0-0.7-0.1-0.8-0.3c-0.3-0.3-0.4-0.8-0.5-1.2c0.5-1.1,1.4-1.7,2.2-2.5c2.2-2.2,4.3-4.4,6.2-6.8c2.7-3.5,5.1-7.2,6.7-11.3
				c2.5-6.4,2.7-12.9-0.3-19.2c-0.8-1.7-1.8-3.3-2.9-4.8c-2.2-3.1-5-5.6-8-7.8c-0.2-0.2-0.6-0.1-0.9-0.1c0-0.3,0-0.7-0.4-0.3
				c-0.1,0.1,0.2,0.3,0.5,0.2c-0.2,1,0.5,1.6,0.8,2.4c0.9,2.6,1,5.2,0,7.8c-0.3,0.8-0.8,1.6-1.5,2.1c-3.9,2.9-7.8,5.7-11.7,8.6
				c-0.3,0.2-0.6,0.4-0.9,0.2c-0.2-0.2-0.4-0.5-0.4-0.8c0.1-1.5,0-3.1-0.2-4.6c-0.9-6.7-4.3-11.4-10.7-13.8
				c-0.8-0.3-1.7-0.5-2.5-0.7c-0.6-0.1-1,0.2-1.3,0.7c-1.4,2.8-2.3,5.8-2.6,8.8c-0.5,4.5-0.2,9,1,13.4c1.6,6,4.3,11.5,7.6,16.8
				c4.9,7.9,11,14.9,17.6,21.4c4.1,4.1,8.5,8,13,11.7c0.3,0.3,0.6,0.6,1.4,0.5c2.3-2.2,4.7-4.6,7-7.2c4.6-5.1,8.8-10.4,12.3-16.3
				c3.4-5.8,6.1-12,7.2-18.7c0.9-5.6,0.6-11.2-1.2-16.6C167.4,269.8,165.3,266.1,162.4,262.9"/>
		</g>
	</g>
</g>
</svg>
